<svg xmlns="http://www.w3.org/2000/svg" viewBox="0 0 720 380" width="720" height="380" font-family="'Hiragino Mincho ProN','Yu Mincho','Noto Serif JP','Noto Serif CJK JP',serif" role="img"><title>ℚ(√2, √3)/ℚ の中間体と部分群の対応</title><rect width="100%" height="100%" fill="#ffffff"/><text x="180" y="28" font-size="15" fill="#1a202c" text-anchor="middle" font-weight="bold" dominant-baseline="central">中間体</text><text x="540" y="28" font-size="15" fill="#1a202c" text-anchor="middle" font-weight="bold" dominant-baseline="central">部分群 (上下を逆に配置)</text><line x1="360" y1="60" x2="360" y2="320" stroke="#e2e8f0" stroke-width="1"/><text x="360" y="352" font-size="14" fill="#4a5568" text-anchor="middle" font-weight="normal" dominant-baseline="central">辺の数字はすべて 2 (拡大次数 = 指数)</text><line x1="180" y1="80" x2="75" y2="190" stroke="#a0aec0" stroke-width="1.5"/><text x="117.4" y="125.3" font-size="14" fill="#4a5568" text-anchor="end" dominant-baseline="central">2</text><line x1="75" y1="190" x2="180" y2="300" stroke="#a0aec0" stroke-width="1.5"/><text x="117.4" y="254.7" font-size="14" fill="#4a5568" text-anchor="end" dominant-baseline="central">2</text><line x1="540" y1="80" x2="435" y2="190" stroke="#a0aec0" stroke-width="1.5"/><text x="477.4" y="125.3" font-size="14" fill="#4a5568" text-anchor="end" dominant-baseline="central">2</text><line x1="435" y1="190" x2="540" y2="300" stroke="#a0aec0" stroke-width="1.5"/><text x="477.4" y="254.7" font-size="14" fill="#4a5568" text-anchor="end" dominant-baseline="central">2</text><line x1="180" y1="80" x2="180" y2="190" stroke="#a0aec0" stroke-width="1.5"/><line x1="180" y1="190" x2="180" y2="300" stroke="#a0aec0" stroke-width="1.5"/><line x1="540" y1="80" x2="540" y2="190" stroke="#a0aec0" stroke-width="1.5"/><line x1="540" y1="190" x2="540" y2="300" stroke="#a0aec0" stroke-width="1.5"/><line x1="180" y1="80" x2="285" y2="190" stroke="#a0aec0" stroke-width="1.5"/><text x="242.6" y="125.3" font-size="14" fill="#4a5568" text-anchor="start" dominant-baseline="central">2</text><line x1="285" y1="190" x2="180" y2="300" stroke="#a0aec0" stroke-width="1.5"/><text x="242.6" y="254.7" font-size="14" fill="#4a5568" text-anchor="start" dominant-baseline="central">2</text><line x1="540" y1="80" x2="645" y2="190" stroke="#a0aec0" stroke-width="1.5"/><text x="602.6" y="125.3" font-size="14" fill="#4a5568" text-anchor="start" dominant-baseline="central">2</text><line x1="645" y1="190" x2="540" y2="300" stroke="#a0aec0" stroke-width="1.5"/><text x="602.6" y="254.7" font-size="14" fill="#4a5568" text-anchor="start" dominant-baseline="central">2</text><rect x="126.2" y="63.0" width="107.5" height="34" rx="6" fill="#ffffff" stroke="#a0aec0" stroke-width="1.5"/><text x="180" y="80" font-size="18" fill="#1a202c" text-anchor="middle" dominant-baseline="central">ℚ(√2, √3)</text><rect x="510.0" y="63.0" width="60.0" height="34" rx="6" fill="#ffffff" stroke="#a0aec0" stroke-width="1.5"/><text x="540" y="80" font-size="18" fill="#1a202c" text-anchor="middle" dominant-baseline="central">{id}</text><rect x="40.2" y="173.0" width="69.5" height="34" rx="6" fill="#ffffff" stroke="#a0aec0" stroke-width="1.5"/><text x="75" y="190" font-size="18" fill="#1a202c" text-anchor="middle" dominant-baseline="central">ℚ(√2)</text><rect x="409.8" y="173.0" width="50.5" height="34" rx="6" fill="#ffffff" stroke="#a0aec0" stroke-width="1.5"/><text x="435" y="190" font-size="18" fill="#1a202c" text-anchor="middle" dominant-baseline="central">⟨τ⟩</text><rect x="145.2" y="173.0" width="69.5" height="34" rx="6" fill="#ffffff" stroke="#a0aec0" stroke-width="1.5"/><text x="180" y="190" font-size="18" fill="#1a202c" text-anchor="middle" dominant-baseline="central">ℚ(√3)</text><rect x="514.8" y="173.0" width="50.5" height="34" rx="6" fill="#ffffff" stroke="#a0aec0" stroke-width="1.5"/><text x="540" y="190" font-size="18" fill="#1a202c" text-anchor="middle" dominant-baseline="central">⟨σ⟩</text><rect x="250.2" y="173.0" width="69.5" height="34" rx="6" fill="#ffffff" stroke="#a0aec0" stroke-width="1.5"/><text x="285" y="190" font-size="18" fill="#1a202c" text-anchor="middle" dominant-baseline="central">ℚ(√6)</text><rect x="615.0" y="173.0" width="60.0" height="34" rx="6" fill="#ffffff" stroke="#a0aec0" stroke-width="1.5"/><text x="645" y="190" font-size="18" fill="#1a202c" text-anchor="middle" dominant-baseline="central">⟨στ⟩</text><rect x="164.2" y="283.0" width="31.5" height="34" rx="6" fill="#ffffff" stroke="#a0aec0" stroke-width="1.5"/><text x="180" y="300" font-size="18" fill="#1a202c" text-anchor="middle" dominant-baseline="central">ℚ</text><rect x="491.0" y="283.0" width="98.0" height="34" rx="6" fill="#ffffff" stroke="#a0aec0" stroke-width="1.5"/><text x="540" y="300" font-size="18" fill="#1a202c" text-anchor="middle" dominant-baseline="central">Gal(<tspan font-style="italic">L</tspan>/ℚ)</text></svg>
